<svg data-v-423bf9ae="" xmlns="http://www.w3.org/2000/svg" viewBox="0 0 384.51504411608903 60" class="font"><!----><!----><!----><g data-v-423bf9ae="" id="3ea01ba6-d159-4bef-9a38-292e1d159a5c" fill="white" transform="matrix(6.048387050628662,0,0,6.048387050628662,-7.016139030456543,-21.350805282592773)"><path d="M2.13 13.33L1.50 13.33L1.50 13.33Q1.16 13.33 1.16 12.95L1.16 12.95L1.16 3.90L1.16 3.90Q1.16 3.53 1.50 3.53L1.50 3.53L4.81 3.53L4.81 3.53Q6.78 3.53 7.67 4.27L7.67 4.27L7.67 4.27Q8.55 5.00 8.55 6.21L8.55 6.21L8.55 6.21Q8.55 7.28 7.84 8.00L7.84 8.00L7.84 8.00Q7.12 8.73 5.80 8.84L5.80 8.84L5.80 8.85L5.80 8.85Q6.50 9.37 6.73 9.64L6.73 9.64L6.73 9.64Q6.95 9.91 7.23 10.37L7.23 10.37L8.78 12.88L8.78 12.88Q9.06 13.33 8.65 13.33L8.65 13.33L7.88 13.33L7.88 13.33Q7.55 13.33 7.40 13.06L7.40 13.06L5.97 10.62L5.97 10.62Q5.67 10.10 5.09 9.59L5.09 9.59L5.09 9.59Q4.52 9.08 3.66 9.08L3.66 9.08L2.47 9.08L2.47 12.95L2.47 12.95Q2.47 13.33 2.13 13.33L2.13 13.33ZM2.47 4.65L2.47 7.96L4.45 7.96L4.45 7.96Q5.78 7.96 6.50 7.61L6.50 7.61L6.50 7.61Q7.22 7.26 7.22 6.13L7.22 6.13L7.22 6.13Q7.22 5.27 6.56 4.96L6.56 4.96L6.56 4.96Q5.91 4.65 4.78 4.65L4.78 4.65L2.47 4.65ZM10.11 9.74L10.11 9.74L10.11 9.74Q10.11 8.13 10.96 7.09L10.96 7.09L10.96 7.09Q11.81 6.04 13.45 6.04L13.45 6.04L13.45 6.04Q15.09 6.04 15.94 7.09L15.94 7.09L15.94 7.09Q16.80 8.13 16.80 9.74L16.80 9.74L16.80 9.74Q16.80 11.35 15.94 12.40L15.94 12.40L15.94 12.40Q15.09 13.45 13.45 13.45L13.45 13.45L13.45 13.45Q11.81 13.45 10.96 12.40L10.96 12.40L10.96 12.40Q10.11 11.35 10.11 9.74ZM11.38 9.74L11.38 9.74L11.38 9.74Q11.38 11.18 11.95 11.87L11.95 11.87L11.95 11.87Q12.52 12.56 13.45 12.56L13.45 12.56L13.45 12.56Q14.39 12.56 14.96 11.87L14.96 11.87L14.96 11.87Q15.52 11.18 15.52 9.74L15.52 9.74L15.52 9.74Q15.52 8.31 14.96 7.62L14.96 7.62L14.96 7.62Q14.39 6.92 13.45 6.92L13.45 6.92L13.45 6.92Q12.52 6.92 11.95 7.62L11.95 7.62L11.95 7.62Q11.38 8.31 11.38 9.74ZM17.96 11.42L17.96 11.42L17.96 11.42Q17.96 10.20 19.10 9.63L19.10 9.63L19.10 9.63Q20.23 9.06 22.50 8.97L22.50 8.97L22.50 8.50L22.50 8.50Q22.50 7.86 22.21 7.39L22.21 7.39L22.21 7.39Q21.92 6.92 21.05 6.92L21.05 6.92L21.05 6.92Q20.51 6.92 20.18 7.03L20.18 7.03L20.18 7.03Q19.85 7.14 19.58 7.31L19.58 7.31L19.58 7.31Q19.31 7.49 19.07 7.76L19.07 7.76L19.07 7.76Q18.88 7.96 18.72 7.78L18.72 7.78L18.36 7.37L18.36 7.37Q18.21 7.20 18.46 6.96L18.46 6.96L18.46 6.96Q18.83 6.62 19.17 6.45L19.17 6.45L19.17 6.45Q19.51 6.28 20.02 6.16L20.02 6.16L20.02 6.16Q20.53 6.04 21.05 6.04L21.05 6.04L21.05 6.04Q22.48 6.04 23.09 6.77L23.09 6.77L23.09 6.77Q23.70 7.51 23.70 8.78L23.70 8.78L23.70 13.02L23.70 13.02Q23.70 13.33 23.39 13.33L23.39 13.33L22.78 13.33L22.78 13.33Q22.51 13.33 22.51 13.02L22.51 13.02L22.51 12.69L22.50 12.69L22.50 12.69Q21.96 13.11 21.44 13.28L21.44 13.28L21.44 13.28Q20.92 13.45 20.29 13.45L20.29 13.45L20.29 13.45Q19.17 13.45 18.56 12.91L18.56 12.91L18.56 12.91Q17.96 12.37 17.96 11.42ZM19.20 11.44L19.20 11.44L19.20 11.44Q19.20 11.87 19.38 12.12L19.38 12.12L19.38 12.12Q19.56 12.38 19.87 12.45L19.87 12.45L19.87 12.45Q20.19 12.52 20.53 12.52L20.53 12.52L20.53 12.52Q21.05 12.52 21.53 12.42L21.53 12.42L21.53 12.42Q22.00 12.32 22.50 11.88L22.50 11.88L22.50 9.86L22.50 9.86Q21.12 9.97 20.53 10.11L20.53 10.11L20.53 10.11Q19.94 10.26 19.57 10.62L19.57 10.62L19.57 10.62Q19.20 10.98 19.20 11.44ZM26.54 13.33L25.95 13.33L25.95 13.33Q25.64 13.33 25.64 13.02L25.64 13.02L25.64 6.46L25.64 6.46Q25.64 6.15 25.95 6.15L25.95 6.15L26.52 6.15L26.52 6.15Q26.83 6.15 26.83 6.46L26.83 6.46L26.83 7.01L26.86 7.01L26.86 7.01Q27.30 6.51 27.82 6.28L27.82 6.28L27.82 6.28Q28.34 6.04 28.82 6.04L28.82 6.04L28.82 6.04Q29.70 6.04 30.18 6.48L30.18 6.48L30.18 6.48Q30.65 6.92 30.79 7.36L30.79 7.36L30.82 7.36L30.82 7.36Q31.19 6.80 31.77 6.42L31.77 6.42L31.77 6.42Q32.34 6.04 32.99 6.04L32.99 6.04L32.99 6.04Q34.08 6.04 34.63 6.74L34.63 6.74L34.63 6.74Q35.18 7.44 35.18 8.65L35.18 8.65L35.18 13.02L35.18 13.02Q35.18 13.33 34.88 13.33L34.88 13.33L34.29 13.33L34.29 13.33Q33.98 13.33 33.98 13.02L33.98 13.02L33.98 9.05L33.98 9.05Q33.98 7.71 33.65 7.32L33.65 7.32L33.65 7.32Q33.31 6.92 32.61 6.92L32.61 6.92L32.61 6.92Q31.93 6.92 31.47 7.51L31.47 7.51L31.47 7.51Q31.01 8.09 31.01 9.27L31.01 9.27L31.01 13.02L31.01 13.02Q31.01 13.33 30.71 13.33L30.71 13.33L30.12 13.33L30.12 13.33Q29.81 13.33 29.81 13.02L29.81 13.02L29.81 9.05L29.81 9.05Q29.81 7.71 29.48 7.32L29.48 7.32L29.48 7.32Q29.14 6.92 28.44 6.92L28.44 6.92L28.44 6.92Q27.76 6.92 27.30 7.45L27.30 7.45L27.30 7.45Q26.84 7.98 26.84 9.27L26.84 9.27L26.84 13.02L26.84 13.02Q26.84 13.33 26.54 13.33L26.54 13.33ZM38.27 13.33L37.65 13.33L37.65 13.33Q37.30 13.33 37.30 12.95L37.30 12.95L37.30 3.90L37.30 3.90Q37.30 3.53 37.65 3.53L37.65 3.53L38.52 3.53L38.52 3.53Q39.00 3.53 39.20 3.87L39.20 3.87L43.48 11.04L43.51 11.04L43.51 11.04Q43.50 10.77 43.50 10.49L43.50 10.49L43.50 3.90L43.50 3.90Q43.50 3.53 43.84 3.53L43.84 3.53L44.47 3.53L44.47 3.53Q44.81 3.53 44.81 3.90L44.81 3.90L44.81 12.95L44.81 12.95Q44.81 13.33 44.47 13.33L44.47 13.33L43.87 13.33L43.87 13.33Q43.39 13.33 43.18 12.99L43.18 12.99L38.63 5.38L38.60 5.38L38.60 5.38Q38.62 5.65 38.62 5.93L38.62 5.93L38.62 12.95L38.62 12.95Q38.62 13.33 38.27 13.33L38.27 13.33ZM46.55 9.74L46.55 9.74L46.55 9.74Q46.55 8.05 47.40 7.04L47.40 7.04L47.40 7.04Q48.25 6.04 49.83 6.04L49.83 6.04L49.83 6.04Q51.14 6.04 52.00 6.96L52.00 6.96L52.00 6.96Q52.87 7.88 52.87 9.89L52.87 9.89L52.87 9.89Q52.87 10.20 52.59 10.20L52.59 10.20L47.82 10.20L47.82 10.20Q47.94 11.52 48.54 12.03L48.54 12.03L48.54 12.03Q49.13 12.55 49.88 12.55L49.88 12.55L49.88 12.55Q50.67 12.55 51.10 12.28L51.10 12.28L51.10 12.28Q51.52 12.02 51.72 11.76L51.72 11.76L51.72 11.76Q51.94 11.47 52.14 11.65L52.14 11.65L52.55 12.00L52.55 12.00Q52.71 12.13 52.55 12.37L52.55 12.37L52.55 12.37Q52.42 12.57 51.81 13.01L51.81 13.01L51.81 13.01Q51.19 13.45 49.88 13.45L49.88 13.45L49.88 13.45Q48.17 13.45 47.36 12.44L47.36 12.44L47.36 12.44Q46.55 11.44 46.55 9.74ZM47.80 9.31L47.80 9.31L51.66 9.31L51.66 9.31Q51.63 8.35 51.17 7.63L51.17 7.63L51.17 7.63Q50.70 6.91 49.80 6.91L49.80 6.91L49.80 6.91Q49.01 6.91 48.45 7.44L48.45 7.44L48.45 7.44Q47.90 7.97 47.80 9.31ZM54.04 12.66L54.04 12.66L54.04 12.66Q53.83 12.46 53.96 12.29L53.96 12.29L54.26 11.86L54.26 11.86Q54.41 11.66 54.71 11.88L54.71 11.88L54.71 11.88Q55.11 12.19 55.61 12.37L55.61 12.37L55.61 12.37Q56.10 12.56 56.74 12.56L56.74 12.56L56.74 12.56Q57.11 12.56 57.41 12.47L57.41 12.47L57.41 12.47Q57.70 12.37 57.92 12.12L57.92 12.12L57.92 12.12Q58.15 11.87 58.15 11.44L58.15 11.44L58.15 11.44Q58.15 11.20 58.04 10.98L58.04 10.98L58.04 10.98Q57.93 10.76 57.71 10.63L57.71 10.63L57.71 10.63Q57.49 10.49 57.28 10.42L57.28 10.42L57.28 10.42Q56.93 10.29 56.58 10.20L56.58 10.20L56.58 10.20Q56.24 10.12 55.68 9.94L55.68 9.94L55.68 9.94Q55.30 9.82 54.97 9.61L54.97 9.61L54.97 9.61Q54.63 9.39 54.38 9.02L54.38 9.02L54.38 9.02Q54.13 8.65 54.13 8.00L54.13 8.00L54.13 8.00Q54.13 7.34 54.54 6.86L54.54 6.86L54.54 6.86Q54.94 6.38 55.55 6.21L55.55 6.21L55.55 6.21Q56.16 6.04 56.73 6.04L56.73 6.04L56.73 6.04Q57.58 6.04 58.10 6.23L58.10 6.23L58.10 6.23Q58.61 6.43 58.99 6.69L58.99 6.69L58.99 6.69Q59.21 6.85 59.05 7.05L59.05 7.05L58.74 7.46L58.74 7.46Q58.60 7.66 58.30 7.45L58.30 7.45L58.30 7.45Q58.04 7.27 57.58 7.12L57.58 7.12L57.58 7.12Q57.11 6.96 56.77 6.96L56.77 6.96L56.77 6.96Q56.33 6.96 56.03 7.05L56.03 7.05L56.03 7.05Q55.72 7.15 55.53 7.38L55.53 7.38L55.53 7.38Q55.34 7.62 55.34 7.93L55.34 7.93L55.34 7.93Q55.34 8.17 55.41 8.36L55.41 8.36L55.41 8.36Q55.49 8.54 55.69 8.70L55.69 8.70L55.69 8.70Q55.90 8.86 56.27 8.96L56.27 8.96L56.27 8.96Q56.84 9.11 57.32 9.23L57.32 9.23L57.32 9.23Q57.79 9.35 58.17 9.53L58.17 9.53L58.17 9.53Q58.67 9.76 58.94 10.04L58.94 10.04L58.94 10.04Q59.21 10.32 59.32 10.65L59.32 10.65L59.32 10.65Q59.42 10.97 59.42 11.37L59.42 11.37L59.42 11.37Q59.42 12.10 58.98 12.61L58.98 12.61L58.98 12.61Q58.55 13.11 58.02 13.28L58.02 13.28L58.02 13.28Q57.48 13.45 56.73 13.45L56.73 13.45L56.73 13.45Q55.71 13.45 54.98 13.16L54.98 13.16L54.98 13.16Q54.26 12.87 54.04 12.66ZM61.36 7.05L60.55 7.05L60.55 7.05Q60.25 7.05 60.25 6.82L60.25 6.82L60.25 6.39L60.25 6.39Q60.25 6.15 60.55 6.15L60.55 6.15L61.36 6.15L61.36 5.54L61.36 5.54Q61.36 5.40 61.43 5.28L61.43 5.28L61.91 4.41L61.91 4.41Q62.04 4.17 62.12 4.17L62.12 4.17L62.36 4.17L62.36 4.17Q62.56 4.17 62.56 4.41L62.56 4.41L62.56 6.15L64.02 6.15L64.02 6.15Q64.33 6.15 64.33 6.39L64.33 6.39L64.33 6.82L64.33 6.82Q64.33 7.05 64.02 7.05L64.02 7.05L62.56 7.05L62.56 11.41L62.56 11.41Q62.56 12.13 62.78 12.34L62.78 12.34L62.78 12.34Q62.99 12.56 63.29 12.56L63.29 12.56L63.29 12.56Q63.53 12.56 63.85 12.42L63.85 12.42L63.85 12.42Q64.18 12.28 64.30 12.19L64.30 12.19L64.30 12.19Q64.42 12.09 64.49 12.25L64.49 12.25L64.72 12.78L64.72 12.78Q64.77 12.91 64.63 13.00L64.63 13.00L64.63 13.00Q64.37 13.15 63.85 13.30L63.85 13.30L63.85 13.30Q63.34 13.45 62.83 13.45L62.83 13.45L62.83 13.45Q62.12 13.45 61.74 12.93L61.74 12.93L61.74 12.93Q61.36 12.42 61.36 11.48L61.36 11.48L61.36 7.05Z"></path></g><!----><!----></svg>